<svg width="500" height="416" viewBox="0 0 500 416" fill="none" xmlns="http://www.w3.org/2000/svg">
<path d="M185.758 296.98C196.187 317.157 199.012 336.277 194.234 354.342C189.483 372.271 177.473 387.734 158.205 400.731C137.317 414.82 115.506 418.635 92.774 412.176C70.1225 405.663 50.3324 389.857 33.4037 364.76L21.9359 347.758C10.8503 331.323 4.01726 314.906 1.43669 298.506C-1.06291 282.051 0.832213 266.873 7.12207 252.972C13.3573 238.989 23.559 227.219 37.7271 217.663C56.51 204.994 75.1183 200.099 93.5519 202.978C111.931 205.777 128.304 215.819 142.672 233.103L119.234 248.912C107.708 236.19 96.4145 228.965 85.3544 227.237C74.3752 225.455 62.8135 228.659 50.6694 236.85C35.7726 246.898 27.7872 260.295 26.7131 277.039C25.72 293.729 32.0768 312.235 45.7836 332.556L57.3333 349.679C70.2756 368.867 84.5769 381.425 100.237 387.353C115.898 393.281 130.933 391.385 145.344 381.665C158.298 372.927 166.25 363.323 169.199 352.852C172.176 342.246 169.882 328.892 162.32 312.79L185.758 296.98ZM254.477 217.587C230.603 225.327 211.279 228.113 196.506 225.945C181.759 223.641 170.235 216.337 161.935 204.031C152.542 190.105 150.333 174.868 155.309 158.319C160.311 141.635 171.717 127.285 189.528 115.271C201.673 107.08 214.064 102.138 226.704 100.444C239.425 98.6962 251.161 100.204 261.913 104.967C272.745 109.675 281.465 116.927 288.073 126.724L264.635 142.533C257.426 131.846 248.374 125.76 237.478 124.275C226.527 122.709 214.858 126.104 202.471 134.459C190.974 142.214 183.708 150.825 180.671 160.295C177.661 169.628 179.187 178.788 185.248 187.775C190.109 194.981 197.268 199.045 206.725 199.969C216.21 200.758 229.671 198.274 247.11 192.519C264.63 186.709 279.212 183.529 290.855 182.978C302.525 182.292 312.583 183.931 321.028 187.894C329.554 191.802 336.848 198.25 342.909 207.236C352.575 221.566 354.743 236.831 349.414 253.029C344.03 269.147 331.987 283.514 313.285 296.128C301.141 304.319 288.25 309.657 274.612 312.142C260.92 314.545 248.469 313.637 237.26 309.418C226.132 305.145 217.1 297.867 210.165 287.585L233.603 271.776C240.812 282.463 250.445 288.275 262.503 289.212C274.587 290.013 287.228 285.963 300.424 277.062C312.73 268.761 320.469 259.89 323.642 250.447C326.814 241.004 325.478 231.951 319.635 223.288C313.792 214.626 306.251 209.994 297.011 209.394C287.717 208.713 273.539 211.444 254.477 217.587ZM402.15 117.981C378.275 125.721 358.951 128.507 344.178 126.339C329.431 124.035 317.907 116.73 309.607 104.424C300.214 90.499 298.006 75.2619 302.981 58.7129C307.983 42.0284 319.389 27.6791 337.201 15.6652C349.345 7.47393 361.737 2.53153 374.376 0.838036C387.097 -0.910068 398.833 0.597397 409.585 5.36043C420.417 10.0689 429.137 17.3212 435.745 27.1174L412.307 42.9267C405.099 32.2398 396.046 26.154 385.15 24.6691C374.199 23.1032 362.53 26.4978 350.143 34.8529C338.647 42.6073 331.38 51.2192 328.344 60.6884C325.333 70.022 326.859 79.1822 332.921 88.1688C337.781 95.3743 344.94 99.439 354.398 100.363C363.882 101.151 377.343 98.6679 394.782 92.9127C412.302 87.1029 426.884 83.9228 438.528 83.3722C450.198 82.6861 460.255 84.3246 468.7 88.2875C477.226 92.1959 484.52 98.6434 490.582 107.63C500.247 121.96 502.415 137.224 497.086 153.423C491.702 169.541 479.659 183.907 460.957 196.522C448.813 204.713 435.922 210.051 422.285 212.535C408.592 214.939 396.142 214.031 384.933 209.812C373.804 205.539 364.773 198.261 357.837 187.979L381.276 172.17C388.484 182.857 398.117 188.669 410.175 189.605C422.26 190.407 434.9 186.357 448.097 177.456C460.403 169.155 468.142 160.283 471.314 150.841C474.486 141.398 473.15 132.345 467.307 123.682C461.464 115.019 453.923 110.388 444.684 109.788C435.39 109.107 421.212 111.838 402.15 117.981Z" fill="white" fill-opacity="0.1"/>
</svg>
