<svg width="766" height="557" viewBox="0 0 766 557" fill="none" xmlns="http://www.w3.org/2000/svg">
<path d="M255.431 465.091L231.993 480.9L176.865 399.171L87.7276 459.295L142.855 541.025L119.538 556.752L0.27299 379.934L23.5897 364.206L74.8672 440.229L164.005 380.104L112.727 304.082L136.166 288.273L255.431 465.091ZM309.046 199.581L252.211 237.917L358.534 395.547L335.339 411.192L229.016 253.562L172.303 291.815L159.361 272.628L296.103 180.394L309.046 199.581ZM352.452 142.386L507.571 247.667L468.064 64.4048L498.303 44.0084L617.568 220.827L594.251 236.554L547.807 167.697L499.862 91.9005L538.388 274.234L520.537 286.275L366.28 182.533L418.472 254.934L464.917 323.791L441.6 339.519L322.335 162.7L352.452 142.386ZM669.314 158.183L753.109 101.663L765.969 120.729L658.737 193.058L539.471 16.2399L562.909 0.43072L669.314 158.183Z" fill="white" fill-opacity="0.1"/>
</svg>
