<svg id="Capa_1" data-name="Capa 1" xmlns="http://www.w3.org/2000/svg" viewBox="0 0 631.76 637.85"><defs><style>.cls-1{fill:#e6e6e6;}.cls-2{fill:#f2f2f2;}.cls-3{fill:#fff;}.cls-4{fill:#ccc;}</style></defs><polygon class="cls-1" points="0.66 609.2 278.49 1.21 278.56 1.35 352.09 1.35 161.42 418.64 61.6 637.06 0.66 609.2"/><path d="M934.93,158l-36.34,79.54-122.48,268-31.53,69-99.6,218-60-27.43,86.68-189.69,31.53-69L862.37,158h72.56m-72.81-1.85-.39.85L702.25,506l-31.53,69-87.1,190.6,61.85,28.27L745.49,575,777,506,899.5,238l37-81h-74l-.38-.85Z" transform="translate(-583.62 -156.15)"/><polygon class="cls-2" points="438.82 349.64 316.33 81.6 279.66 1.35 353.19 1.35 353.26 1.2 631.1 609.2 570.16 637.06 438.82 349.64"/><path d="M936.63,158l159.21,348.42,31.53,69,86.68,189.69-60,27.43-99.6-218-31.53-69-122.48-268L864.06,158h72.57m.25-1.85-.39.85h-74l37,81L1022,506l31.53,69,100,218.87,61.85-28.27L1128.28,575l-31.53-69L937.27,157l-.39-.85Z" transform="translate(-583.62 -156.15)"/><polygon class="cls-3" points="278.11 0.85 278.5 0 278.88 0.85 278.11 0.85"/><polygon points="278.5 0 278.11 0.85 278.88 0.85 278.5 0 278.5 0"/><polygon class="cls-3" points="353.65 0.85 352.87 0.85 353.26 0 353.65 0.85"/><polygon points="353.26 0 352.87 0.85 353.65 0.85 353.26 0 353.26 0"/><polygon class="cls-4" points="87.88 418.35 118.95 350.35 512.81 350.35 543.88 418.35 87.88 418.35"/><path d="M1096.11,507l30.61,67H672.28l30.61-67h393.22m.64-1H702.25l-31.53,69h457.56l-31.53-69Z" transform="translate(-583.62 -156.15)"/><ellipse class="cls-4" cx="166.86" cy="600.85" rx="32.98" ry="36.5"/><path d="M750.48,721c17.9,0,32.47,16.15,32.47,36s-14.57,36-32.47,36S718,776.85,718,757s14.57-36,32.48-36m0-1C732,720,717,736.57,717,757s15,37,33.48,37S784,777.43,784,757s-15-37-33.47-37Z" transform="translate(-583.62 -156.15)"/><path class="cls-2" d="M854.21,720.52c15.36,0,25.06,3.06,31.82,9.49,5.34,5.23,9.27,12.86,9.27,23.32,0,12.75-5.24,23.11-13.63,29.43s-18.85,8.61-32.26,8.61H823.9v-3c9.38-.87,9.81-1.64,9.81-10.57V734.26c0-9.38-1.3-9.81-9.81-10.68v-3.06Zm-11,56.35c0,8.18,3.48,10.47,11.66,10.47,19.62,0,29.64-13.41,29.64-32.48,0-11.88-4-20.93-12.64-26.16-5-3.16-11.33-4.36-18.64-4.36-4.9,0-7.52.65-8.61,1.53-1,.65-1.41,1.85-1.41,6.1Z" transform="translate(-583.62 -156.15)"/><path class="cls-2" d="M962.44,774c-.65,2.83-3.6,14.06-4.69,17.33h-53v-3c10.14-.76,10.9-1.75,10.9-10.68V734.58c0-9.7-1.2-10.24-9.37-11v-3.06h33.35c10.24,0,14.5-.1,15.8-.21.11,2.72.55,10.9,1,16.67l-3.27.55a36.22,36.22,0,0,0-3.27-8.29c-1.74-3.59-4.25-4.36-10.79-4.36H928.76c-3.38,0-3.6.33-3.6,3.49v24.09h12.1c8.18,0,8.72-1.64,10-9.05h3.38v22.46h-3.38c-1.42-7.85-2.29-8.94-10.14-8.94h-12v21.69c0,7.63,2.4,8.28,7.85,8.39h10.14c6.65,0,7.74-1,10.13-3.81,2.07-2.29,4.36-6.76,5.89-10Z" transform="translate(-583.62 -156.15)"/><path class="cls-2" d="M1036.67,723.58c-7.31,1-9.16,2-13.08,11.77-3,7.19-18,43.7-23.33,57.22h-3.59c-6.44-17.55-15.81-43.05-22-59.18-3-8.07-4.91-9.16-11.56-9.81v-3.06h27.69v3.06c-8.07.87-8.5,2.18-7,6.21,2.73,8,10.69,29.64,17.55,47.74,5.78-14.06,13-31.83,18.09-45.56,2.4-6.32,1.1-7.3-7.84-8.39v-3.06h25.07Z" transform="translate(-583.62 -156.15)"/></svg>