<svg width="623" height="730" viewBox="0 0 623 730" fill="none" xmlns="http://www.w3.org/2000/svg">
<path d="M99.2965 259.586L82.2822 237.008L148.924 52.3443L17.6635 151.256L0.649338 128.677L170.983 0.321436L187.998 22.9L120.947 208.238L252.793 108.886L269.63 131.231L99.2965 259.586ZM307.762 370.471C291.071 383.048 274.371 391.23 257.661 395.018C241.029 398.747 225.558 397.933 211.249 392.575C196.94 387.217 184.614 377.674 174.27 363.948C164.161 350.533 158.474 336.171 157.209 320.861C156.022 305.493 159.337 290.339 167.155 275.399C175.109 260.479 187.061 246.887 203.01 234.624L215.293 225.368C231.672 213.026 248.284 204.971 265.131 201.202C281.978 197.433 297.624 198.237 312.07 203.615C326.653 209.011 338.998 218.417 349.107 231.832C359.392 245.48 365.128 259.989 366.315 275.357C367.639 290.745 364.139 305.977 355.814 321.055C347.566 336.074 335.137 349.842 318.525 362.36L307.762 370.471ZM301.921 339.839C322.12 324.618 334.546 308.896 339.196 292.675C343.925 276.394 340.794 260.962 329.804 246.377C319.108 232.183 305.254 225.076 288.242 225.056C271.367 225.055 253.248 232.166 233.886 246.39L221.368 255.823C201.792 270.574 189.474 286.276 184.415 302.928C179.492 319.6 182.466 335.15 193.339 349.578C204.27 364.085 217.998 371.348 234.521 371.37C251.123 371.332 269.378 363.995 289.286 349.36L301.921 339.839ZM253.482 464.198L423.816 335.842L460.048 383.924C471.215 398.742 477.813 414.313 479.842 430.637C481.871 446.96 479.163 462.758 471.717 478.028C464.33 493.377 452.828 506.997 437.21 518.888L426.33 527.087C410.264 539.194 393.836 546.682 377.045 549.552C360.314 552.5 344.362 550.642 329.191 543.977C314.078 537.39 300.684 526.513 289.009 511.344L253.482 464.198ZM422.258 372.232L288.775 472.819L306.583 496.45C319.63 513.765 335.149 523.163 353.141 524.645C371.192 526.206 390.161 519.493 410.049 504.506L419.993 497.013C439.335 482.438 450.91 466.562 454.719 449.385C458.664 432.228 454.426 415.245 442.005 398.438L422.258 372.232ZM523.25 658.381L467.623 584.561L407.258 630.05L471.876 715.802L453.509 729.643L371.964 621.429L542.298 493.073L622.962 600.117L604.478 614.046L540.74 529.464L485.99 570.721L541.617 644.54L523.25 658.381Z" fill="white" fill-opacity="0.1"/>
</svg>
