<svg width="799" height="674" viewBox="0 0 799 674" fill="none" xmlns="http://www.w3.org/2000/svg">
<path d="M136.141 558.222L94.6083 586.236L142.855 657.765L119.417 673.574L0.151554 496.756L58.6861 457.274C78.6025 443.84 96.9621 438.053 113.765 439.912C130.649 441.717 144.934 451.282 156.62 468.608C164.047 479.618 167.523 491.233 167.047 503.451C166.653 515.614 162.517 527.297 154.642 538.499L246.797 585.535L247.78 586.992L222.763 603.866L136.141 558.222ZM81.7479 567.17L117.573 543.006C129.15 535.197 136.319 526.003 139.079 515.425C141.919 504.792 139.954 494.456 133.182 484.417C125.81 473.487 116.879 467.319 106.39 465.914C95.9809 464.453 84.5962 467.833 72.2356 476.052L36.5319 500.135L81.7479 567.17ZM317.615 420.974L240.986 472.661L283.253 535.325L372.27 475.282L385.13 494.349L272.797 570.118L153.532 393.3L264.65 318.35L277.592 337.537L189.791 396.76L228.126 453.595L304.755 401.908L317.615 420.974ZM480.666 362.766L406.587 412.733L421.076 470.102L397.031 486.321L345.287 263.959L365.689 250.198L552.597 381.391L528.673 397.527L480.666 362.766ZM400.688 388.794L460.802 348.247L374.901 285.86L400.688 388.794ZM667.162 222.484C677.59 242.66 680.416 261.781 675.638 279.845C670.887 297.775 658.877 313.238 639.608 326.234C618.721 340.324 596.91 344.139 574.178 337.68C551.526 331.166 531.736 315.361 514.808 290.263L503.34 273.261C492.254 256.826 485.421 240.409 482.841 224.009C480.341 207.555 482.236 192.377 488.526 178.475C494.761 164.492 504.963 152.723 519.131 143.166C537.914 130.497 556.522 125.602 574.956 128.482C593.335 131.281 609.708 141.322 624.076 158.606L600.637 174.415C589.112 161.693 577.818 154.468 566.758 152.741C555.779 150.958 544.217 154.163 532.073 162.354C517.177 172.402 509.191 185.798 508.117 202.543C507.124 219.233 513.481 237.738 527.187 258.059L538.737 275.183C551.679 294.37 565.981 306.928 581.641 312.856C597.301 318.785 612.337 316.889 626.748 307.168C639.702 298.431 647.654 288.827 650.603 278.356C653.58 267.749 651.286 254.395 643.724 238.293L667.162 222.484ZM749.148 19.469L692.314 57.8043L798.637 215.435L775.441 231.08L669.118 73.4496L612.405 111.703L599.463 92.5153L736.206 0.281278L749.148 19.469Z" fill="white" fill-opacity="0.1"/>
</svg>
